<svg xmlns="http://www.w3.org/2000/svg" xmlns:xlink="http://www.w3.org/1999/xlink" width="20.1" height="13.31" viewBox="0 0 20.1 13.31">
  <defs>
    <clipPath id="clip-path">
      <rect width="20.1" height="13.31" fill="none"/>
    </clipPath>
  </defs>
  <g id="반복_그리드_1" data-name="반복 그리드 1" clip-path="url(#clip-path)">
    <g transform="translate(-20 -68.398)">
      <g id="아트웍_24" data-name="아트웍 24" transform="translate(30.05 75.053)">
        <g id="그룹_155" data-name="그룹 155" transform="translate(-10.05 -6.655)" clip-path="url(#clip-path)">
          <path id="패스_256" data-name="패스 256" d="M19.1,7.6H3.1a1,1,0,0,1,0-2h16a1,1,0,0,1,0,2"/>
          <path id="패스_257" data-name="패스 257" d="M7.4.3h0A1,1,0,0,0,5.9.3L.3,5.9a1,1,0,0,0,0,1.4L1,8l4.9,5a1,1,0,0,0,1.4-1.4L3.1,7.4A1,1,0,0,1,3.1,6L7.4,1.7A1,1,0,0,0,7.4.3"/>
        </g>
      </g>
    </g>
  </g>
</svg>
