<svg xmlns="http://www.w3.org/2000/svg" xmlns:xlink="http://www.w3.org/1999/xlink" width="20" height="20" viewBox="0 0 20 20">
  <defs>
    <clipPath id="clip-path">
      <rect id="사각형_809" data-name="사각형 809" width="20" height="20" fill="none"/>
    </clipPath>
  </defs>
  <g id="아트웍_55" data-name="아트웍 55" transform="translate(10 10)">
    <g id="그룹_768" data-name="그룹 768" transform="translate(-10 -10)" clip-path="url(#clip-path)">
      <path id="패스_1040" data-name="패스 1040" d="M19,10a9,9,0,1,1-9-9,9,9,0,0,1,9,9" fill="#ce2828"/>
      <path id="패스_1041" data-name="패스 1041" d="M11.4,10l2.8-2.8a1,1,0,1,0-1.4-1.4L10,8.6,7.2,5.8A1,1,0,1,0,5.8,7.2L8.6,10,5.8,12.8a1,1,0,1,0,1.4,1.4L10,11.4l2.8,2.8a1,1,0,0,0,1.4-1.4Z" fill="#fff"/>
    </g>
  </g>
</svg>
