<svg xmlns="http://www.w3.org/2000/svg" xmlns:xlink="http://www.w3.org/1999/xlink" width="20" height="20" viewBox="0 0 20 20"><defs><clipPath id="a"><rect width="20" height="20" fill="none"/></clipPath></defs><g transform="translate(10 10)"><g transform="translate(-10 -10)" clip-path="url(#a)"><path d="M19,10a9,9,0,1,1-9-9,9,9,0,0,1,9,9" fill="#ce2828"/><path d="M11.4,10l2.8-2.8a1,1,0,1,0-1.4-1.4L10,8.6,7.2,5.8A1,1,0,1,0,5.8,7.2L8.6,10,5.8,12.8a1,1,0,1,0,1.4,1.4L10,11.4l2.8,2.8a1,1,0,0,0,1.4-1.4Z" fill="#fff"/></g></g></svg>