<svg xmlns="http://www.w3.org/2000/svg" xmlns:xlink="http://www.w3.org/1999/xlink" width="18" height="22" viewBox="0 0 18 22">
  <defs>
    <clipPath id="clip-path">
      <rect id="사각형_791" data-name="사각형 791" width="18" height="22" fill="none"/>
    </clipPath>
  </defs>
  <g id="아트웍_12" data-name="아트웍 12" transform="translate(9 11)">
    <g id="아트웍_12-2" data-name="아트웍 12" transform="translate(-9 -11)" clip-path="url(#clip-path)">
      <path id="패스_1020" data-name="패스 1020" d="M15.5,2a.5.5,0,0,1,.5.5v17a.5.5,0,0,1-.5.5H2.5a.5.5,0,0,1-.5-.5V2.5A.5.5,0,0,1,2.5,2h13m0-2H2.5A2.5,2.5,0,0,0,0,2.5v17A2.5,2.5,0,0,0,2.5,22h13A2.5,2.5,0,0,0,18,19.5V2.5A2.5,2.5,0,0,0,15.5,0"/>
      <path id="패스_1021" data-name="패스 1021" d="M14,6H4A1,1,0,0,0,4,8H14a1,1,0,0,0,0-2"/>
      <path id="패스_1022" data-name="패스 1022" d="M10,10H4a1,1,0,0,0,0,2h6a1,1,0,0,0,0-2"/>
    </g>
  </g>
</svg>
