<svg xmlns="http://www.w3.org/2000/svg" xmlns:xlink="http://www.w3.org/1999/xlink" width="24" height="24" viewBox="0 0 24 24">
  <defs>
    <clipPath id="clip-path">
      <rect id="사각형_1065" data-name="사각형 1065" width="24" height="24" fill="none"/>
    </clipPath>
  </defs>
  <g id="아트웍_51" data-name="아트웍 51" transform="translate(12 12)">
    <g id="그룹_1012" data-name="그룹 1012" transform="translate(-12 -12)" clip-path="url(#clip-path)">
      <path id="패스_1420" data-name="패스 1420" d="M12,5a7,7,0,0,1,7,7.4A7.4,7.4,0,0,1,11.7,19H5.8l.5-1.4a2.5,2.5,0,0,0-.3-2A7,7,0,0,1,10.5,5.1H12m0-2-1.8.2A9,9,0,0,0,4.3,16.6a.5.5,0,0,1,0,.4L3.2,20.3a.5.5,0,0,0,.5.7h8c4.7,0,9.1-3.8,9.3-8.5A9,9,0,0,0,12,3" fill="#999"/>
    </g>
  </g>
</svg>
