<?xml version="1.0" ?><svg height="32px" style="enable-background:new 0 0 32 32;" version="1.1" viewBox="0 0 32 32" width="32px" xml:space="preserve" xmlns="http://www.w3.org/2000/svg" xmlns:xlink="http://www.w3.org/1999/xlink"><style type="text/css">
	.st0{fill:none;stroke:#434345;stroke-width:2;stroke-linecap:round;stroke-linejoin:round;stroke-miterlimit:10;}
	.st1{fill:#434345;}
</style><g id="Layer_2"/><g id="Layer_1"><g><path class="st0" d="M20.5,8.5c0,2.82996-1.57001,6.23999-3.90002,8.10999c-0.03998,0.03003-0.07996,0.06-0.12,0.09003    C15.44,17.51001,14.26001,18,13,18s-2.44-0.48999-3.47998-1.29999c-0.04004-0.03003-0.08002-0.06-0.12-0.09003    C7.07001,14.73999,5.5,11.32996,5.5,8.5C5.5,4.35999,8.85999,1,13,1S20.5,4.35999,20.5,8.5z"/><path class="st0" d="M23.5,31H2v-4c0-4.82001,3.09003-8.91003,7.40002-10.39001c0.03998,0.03003,0.07996,0.06,0.12,0.09003    C10.56,17.51001,11.73999,18,13,18s2.44-0.48999,3.47998-1.29999c0.04004-0.03003,0.08002-0.06,0.12-0.09003    c1.40002,0.47998,2.67004,1.23999,3.75,2.20001C18.34998,19.91998,17,22.04999,17,24.5C17,28.08997,19.90997,31,23.5,31z"/><path class="st0" d="M24,30.97998V31h-0.5C23.66998,31,23.83002,30.98999,24,30.97998z"/><path class="st0" d="M30,24.5c0,3.41998-2.64001,6.22998-6,6.47998C23.83002,30.98999,23.66998,31,23.5,31    c-3.59003,0-6.5-2.91003-6.5-6.5c0-2.45001,1.34998-4.58002,3.34998-5.69c0.93005-0.51001,2-0.81,3.15002-0.81    C27.09003,18,30,20.90997,30,24.5z"/><g><line class="st0" x1="25.7981" x2="21.2019" y1="22.2019" y2="26.7981"/><line class="st0" x1="25.7981" x2="21.2019" y1="26.7981" y2="22.2019"/></g></g></g></svg>