<svg xmlns="http://www.w3.org/2000/svg" xmlns:xlink="http://www.w3.org/1999/xlink" width="24" height="24" viewBox="0 0 24 24">
  <defs>
    <clipPath id="clip-path">
      <rect id="사각형_1261" data-name="사각형 1261" width="24" height="24" fill="none"/>
    </clipPath>
  </defs>
  <g id="아트웍_50" data-name="아트웍 50" transform="translate(12 12)">
    <g id="아트웍_50-2" data-name="아트웍 50" transform="translate(-12 -12)" clip-path="url(#clip-path)">
      <path id="패스_1738" data-name="패스 1738" d="M13,4l.4.2a.5.5,0,0,1,.1.4l-.4,2.5A2.5,2.5,0,0,0,15.6,10h4.5l.4.2a.5.5,0,0,1,.1.4l-1.3,9a.5.5,0,0,1-.5.4H3.5a.5.5,0,0,1-.5-.5v-9a.5.5,0,0,1,.5-.5h2a4.5,4.5,0,0,0,4-2.5l1.6-3.2a.5.5,0,0,1,.4-.3H13m0-2H11.5A2.5,2.5,0,0,0,9.3,3.4L7.7,6.6A2.5,2.5,0,0,1,5.5,8h-2A2.5,2.5,0,0,0,1,10.5v9A2.5,2.5,0,0,0,3.5,22H18.8a2.5,2.5,0,0,0,2.5-2.1l1.3-9A2.5,2.5,0,0,0,20.1,8H15.6a.5.5,0,0,1-.5-.6l.4-2.5A2.5,2.5,0,0,0,13,2" fill="#999"/>
      <rect id="사각형_1260" data-name="사각형 1260" width="2" height="14" transform="translate(5 8)" fill="#999"/>
    </g>
  </g>
</svg>
