<svg xmlns="http://www.w3.org/2000/svg" xmlns:xlink="http://www.w3.org/1999/xlink" width="21.6" height="20" viewBox="0 0 21.6 20">
  <defs>
    <clipPath id="clip-path">
      <rect id="사각형_1514" data-name="사각형 1514" width="21.6" height="20" fill="none"/>
    </clipPath>
  </defs>
  <g id="아트웍_20" data-name="아트웍 20" transform="translate(10.8 10)">
    <g id="그룹_1486" data-name="그룹 1486" transform="translate(-10.8 -10)" clip-path="url(#clip-path)">
      <path id="패스_2119" data-name="패스 2119" d="M2.5,19A1.5,1.5,0,0,1,1,17.5v-9A1.5,1.5,0,0,1,2.5,7H3V19Z" fill="#9329d1"/>
      <path id="패스_2120" data-name="패스 2120" d="M2,8.5H2M4,6H2.5A2.5,2.5,0,0,0,0,8.5v9A2.5,2.5,0,0,0,2.5,20H4Z" fill="#9329d1"/>
      <path id="패스_2121" data-name="패스 2121" d="M7,19V5.9l.6-.8L9.2,1.8A1.5,1.5,0,0,1,10.5,1H12a1.5,1.5,0,0,1,1.5,1.7l-.4,2.5A1.5,1.5,0,0,0,14.6,7h4.5a1.5,1.5,0,0,1,1.5,1.7l-1.3,9A1.5,1.5,0,0,1,17.8,19Z" fill="#9329d1"/>
      <path id="패스_2122" data-name="패스 2122" d="M12,2l.4.2a.5.5,0,0,1,.1.4l-.4,2.5A2.5,2.5,0,0,0,14.6,8h4.5l.4.2a.5.5,0,0,1,.1.4l-1.3,9a.5.5,0,0,1-.5.4H8V6.3l.5-.7,1.6-3.2a.5.5,0,0,1,.4-.3H12m0-2H10.5A2.5,2.5,0,0,0,8.3,1.4L6.7,4.6a2.5,2.5,0,0,1-.7.8V20H17.8a2.5,2.5,0,0,0,2.5-2.1l1.3-9A2.5,2.5,0,0,0,19.1,6H14.6a.5.5,0,0,1-.5-.6l.4-2.5A2.5,2.5,0,0,0,12,0" fill="#9329d1"/>
    </g>
  </g>
</svg>
