<svg xmlns="http://www.w3.org/2000/svg" xmlns:xlink="http://www.w3.org/1999/xlink" width="22" height="5" viewBox="0 0 22 5">
  <defs>
    <clipPath id="clip-path">
      <rect id="사각형_528" data-name="사각형 528" width="22" height="5" transform="translate(0)" fill="none"/>
    </clipPath>
  </defs>
  <g id="그룹_461" data-name="그룹 461" clip-path="url(#clip-path)">
    <path id="패스_620" data-name="패스 620" d="M2.5,0a2.532,2.532,0,0,1,2.5,2.56A2.532,2.532,0,0,1,2.5,5.12,2.532,2.532,0,0,1,0,2.56,2.532,2.532,0,0,1,2.5,0" transform="translate(-0.013)"/>
    <path id="패스_621" data-name="패스 621" d="M11,0a2.532,2.532,0,0,1,2.5,2.56,2.5,2.5,0,1,1-5.006,0A2.532,2.532,0,0,1,11,0" transform="translate(-0.003)"/>
    <path id="패스_622" data-name="패스 622" d="M19.5,0a2.532,2.532,0,0,1,2.5,2.56A2.5,2.5,0,1,1,17,2.56,2.532,2.532,0,0,1,19.5,0" transform="translate(0.007)"/>
  </g>
</svg>
