<svg xmlns="http://www.w3.org/2000/svg" xmlns:xlink="http://www.w3.org/1999/xlink" width="16" height="20" viewBox="0 0 16 20">
  <defs>
    <clipPath id="clip-path">
      <rect id="사각형_75" data-name="사각형 75" width="16" height="20" fill="none"/>
    </clipPath>
  </defs>
  <g id="그룹_56" data-name="그룹 56" clip-path="url(#clip-path)">
    <path id="패스_79" data-name="패스 79" d="M8,2A3,3,0,1,1,5,5,3,3,0,0,1,8,2M8,0a5,5,0,1,0,5,5A5,5,0,0,0,8,0"/>
    <path id="패스_80" data-name="패스 80" d="M8,13.7a7.4,7.4,0,0,1,5.8,2.8.8.8,0,0,1,.1.9,1,1,0,0,1-.9.6H3a1,1,0,0,1-.9-.6.8.8,0,0,1,.1-.9A7.4,7.4,0,0,1,8,13.7m0-2A9.4,9.4,0,0,0,.6,15.3,3,3,0,0,0,3,20H13a3,3,0,0,0,2.4-4.7A9.4,9.4,0,0,0,8,11.7"/>
  </g>
</svg>
